<svg width="113" height="88" viewBox="0 0 113 88" fill="none" xmlns="http://www.w3.org/2000/svg">
<path d="M11.0783 30.4235C11.1014 30.4239 11.1241 30.4173 11.1433 30.4046C11.1626 30.3919 11.1776 30.3736 11.1864 30.3523C18.1628 13.4664 33.8476 1.87324 52.062 0.206724C73.606 -1.76436 93.4928 10.5173 101.81 30.327C101.819 30.3481 101.834 30.3661 101.853 30.3788C101.872 30.3914 101.894 30.3982 101.917 30.3983C104.427 30.3906 106.91 30.3841 109.367 30.3787C111.419 30.373 113.077 31.9096 112.942 34.0071C112.317 43.6331 111.691 53.2587 111.065 62.8838C111.01 63.719 110.915 64.3236 110.779 64.6975C110.243 66.1617 108.875 66.9835 107.287 66.8616C104.457 66.6448 101.613 66.4234 98.7544 66.1973C98.7365 66.1961 98.7193 66.1907 98.704 66.1815C98.6886 66.1723 98.6757 66.1595 98.6662 66.1443C98.6567 66.1291 98.6509 66.1118 98.6492 66.0939C98.6476 66.0759 98.6501 66.0578 98.6567 66.041C101.67 58.4747 102.616 50.6516 101.494 42.5719C98.0062 17.4557 74.3841 0.19638 49.3646 4.11097C40.2056 5.54417 31.4489 9.89091 24.8369 16.3811C12.4483 28.5375 7.97058 46.2957 13.2149 62.9126C13.421 63.5654 13.7934 64.6086 14.3321 66.0422C14.3382 66.059 14.3403 66.077 14.3384 66.0948C14.3365 66.1126 14.3305 66.1296 14.3209 66.1447C14.3113 66.1597 14.2984 66.1723 14.2832 66.1814C14.268 66.1905 14.2509 66.196 14.2332 66.1973C11.8426 66.3889 9.45704 66.5755 7.07641 66.7571C5.83897 66.8513 5.10455 66.8827 4.87316 66.8513C3.271 66.6364 2.06881 65.2457 1.96422 63.6194C1.33439 53.8395 0.700352 44.0599 0.062095 34.2807C0.00156408 33.3528 0.183922 32.5617 0.609172 31.9073C1.39531 30.6982 2.64002 30.3868 4.0399 30.381C6.38528 30.3718 8.73143 30.386 11.0783 30.4235Z" fill="#340D5E"/>
<path d="M92.5986 48.9265C93.2407 49.3057 93.6464 49.8582 93.8158 50.5838C94.1709 52.1089 93.1078 53.4939 92.1975 54.6765C91.7638 55.2397 91.3298 55.8036 90.8953 56.3683C90.8852 56.3817 90.878 56.3971 90.8744 56.4135C90.8708 56.4299 90.8708 56.4469 90.8744 56.4632C90.878 56.4795 90.8851 56.4948 90.8953 56.508C90.9055 56.5212 90.9184 56.532 90.9333 56.5396C91.7585 56.9664 92.5074 57.5088 93.1802 58.167C95.2432 60.1841 95.6041 63.4332 94.3582 65.9203C94.1452 66.3456 93.7142 66.9769 93.0652 67.8144C92.0462 69.1308 91.0225 70.4425 89.9943 71.7497C89.3583 72.5596 88.848 73.1281 88.4634 73.4553C86.0475 75.508 82.5547 75.7838 79.6343 74.7391C79.6146 74.7319 79.5933 74.7302 79.5728 74.7342C79.5523 74.7383 79.5334 74.7479 79.5182 74.7621C76.0618 77.8859 72.1334 80.2175 67.733 81.7568C67.7187 81.7619 67.7055 81.7699 67.6942 81.7801C67.683 81.7904 67.6739 81.8029 67.6674 81.8168C67.661 81.8307 67.6574 81.8458 67.6568 81.8611C67.6563 81.8765 67.6587 81.8918 67.6641 81.9062C68.3054 83.598 68.9517 85.3059 69.603 87.0299C69.7811 87.5023 69.5099 87.9965 69.0088 88C68.8969 88 68.6943 87.9406 68.4008 87.8218C65.0226 86.4511 61.6432 85.0826 58.2626 83.7164C58.0895 83.6467 57.9083 83.6145 57.719 83.6199C49.9186 83.8394 42.4227 81.5879 36.1738 76.9676C33.2063 74.7732 30.6506 72.1707 28.5067 69.1603C28.4963 69.1456 28.4826 69.1336 28.4667 69.1251C28.4509 69.1167 28.4333 69.112 28.4154 69.1116C28.3975 69.1111 28.3798 69.1149 28.3638 69.1225C28.3477 69.1302 28.3336 69.1416 28.3228 69.1557C27.0815 70.7571 25.8395 72.3508 24.5967 73.9369C24.0358 74.6533 23.3501 75.0122 22.5394 75.0138C20.712 75.0161 18.7581 75.2459 18.0858 73.1668C17.9724 72.8167 17.9157 72.2439 17.9157 71.4486C17.9172 66.3647 17.9115 61.2809 17.8984 56.1971C17.8969 55.4538 18.1256 54.7953 18.5846 54.2214C18.9692 53.741 19.347 53.2552 19.7178 52.764C19.728 52.7508 19.735 52.7354 19.7385 52.7191C19.742 52.7027 19.7418 52.6857 19.738 52.6694C19.7341 52.653 19.7267 52.6377 19.7163 52.6245C19.7059 52.6112 19.6927 52.6004 19.6776 52.5928C18.8792 52.1905 18.3517 51.6055 18.095 50.8378C17.9762 50.4823 17.9168 49.7965 17.9168 48.7805C17.9191 43.1595 17.9207 37.5386 17.9214 31.9176C17.9226 30.9844 18.2398 30.4465 18.8512 29.6569C20.1224 28.018 21.3951 26.3806 22.6693 24.7447C23.637 23.5023 24.5634 23.4989 26.2368 23.4391C28.7147 23.3506 31.2064 23.1989 33.5798 23.8379C33.5981 23.8429 33.6175 23.8432 33.6362 23.8388C33.6548 23.8344 33.6722 23.8254 33.6867 23.8126C43.064 15.4915 56.0663 12.8447 67.9112 17.0086C72.4158 18.5924 76.4499 21.0577 80.0136 24.4045C80.0356 24.4248 80.0644 24.4359 80.0942 24.4355C80.124 24.435 80.1523 24.4231 80.1733 24.4022C80.5196 24.059 80.9135 23.8092 81.3548 23.6529C81.649 23.5494 82.0808 23.4977 82.6501 23.4977C85.5916 23.5015 88.5331 23.5004 91.4746 23.4943C93.0457 23.4908 94.2847 24.0678 94.6869 25.7044C94.8455 26.3469 94.7754 27.2227 94.7789 27.9525C94.7812 28.6283 94.5801 29.2336 94.1755 29.7684C93.6276 30.4933 93.076 31.2154 92.5205 31.9349C92.5109 31.9473 92.5039 31.9616 92.5 31.9768C92.4961 31.992 92.4954 32.0079 92.4979 32.0234C92.5003 32.0389 92.506 32.0537 92.5144 32.067C92.5228 32.0802 92.5339 32.0916 92.5469 32.1004C92.9844 32.3962 93.3196 32.7674 93.5526 33.2141C94.0111 34.0933 93.941 35.6311 93.8422 36.6092C93.7977 37.0467 93.6284 37.4643 93.3342 37.8619C92.8431 38.5247 92.3561 39.1637 91.8734 39.779C91.7684 39.9131 91.801 39.9748 91.9711 39.9641C92.722 39.9188 93.3963 40.1227 93.9939 40.5755C94.8708 41.2409 95.0605 42.1052 95.0662 43.2523C95.072 44.5234 95.1846 45.3486 94.3456 46.4255C93.7433 47.1971 93.1499 47.9748 92.5653 48.7587C92.5556 48.7716 92.5488 48.7864 92.5452 48.8021C92.5416 48.8179 92.5414 48.8342 92.5445 48.85C92.5477 48.8658 92.5541 48.8808 92.5634 48.894C92.5727 48.9072 92.5847 48.9182 92.5986 48.9265ZM24.0393 44.3683C24.0393 45.0176 24.4335 45.498 25.1093 45.5222C27.1459 45.595 28.9457 45.6126 30.5088 45.575C31.7233 45.5459 32.8791 45.2686 33.9763 44.7429C36.2669 43.6442 37.2829 41.7926 37.1519 39.24C37.0538 37.3313 36.1826 35.9732 34.5383 35.1656C34.1763 34.9875 33.9935 34.6795 34.3889 34.391C35.9826 33.2279 36.7002 31.6433 36.5416 29.6374C36.2428 25.8642 32.4569 25.1907 29.4238 25.2562C27.7332 25.2918 26.1149 25.293 25.0507 25.3769C24.2519 25.4401 24.0381 25.9872 24.0381 26.7388C24.0374 32.6157 24.0377 38.4922 24.0393 44.3683ZM43.1812 45.4647C43.1973 45.4731 43.2149 45.4773 43.2341 45.4773C46.7648 45.4835 50.3381 45.4835 53.9538 45.4773C54.7756 45.4762 54.9802 44.9567 54.9836 44.2016C54.9882 43.2258 55.3123 41.8627 53.8274 41.8616C51.5609 41.8608 49.2937 41.8482 47.0257 41.8237C46.6292 41.8191 46.4522 41.7742 46.4522 41.3352C46.4491 36.4444 46.4484 31.5541 46.4499 26.6641C46.4499 25.886 46.1947 25.3757 45.358 25.3665C44.6857 25.3585 43.0364 25.1585 42.656 25.8285C42.5579 26.0009 42.5093 26.2772 42.51 26.6572C42.5207 31.1051 42.5169 35.553 42.4985 40.0008C42.4928 41.3858 42.5859 43.2235 42.51 44.4165C42.4809 44.8671 42.7046 45.2165 43.1812 45.4647ZM58.5281 37.3838C58.55 40.9387 60.228 44.1913 63.7828 45.3452C67.802 46.652 73.1349 45.5727 74.7393 41.1881C75.2565 39.7744 75.3496 38.4573 75.3576 36.9666C75.3783 33.4926 75.3894 30.0186 75.391 26.5446C75.391 25.0999 74.0129 25.3573 72.9452 25.3665C72.0315 25.3734 71.4132 25.5033 71.4178 26.5446C71.4254 28.2119 71.4243 31.4391 71.4143 36.2265C71.4097 38.8113 71.0017 41.8685 67.7572 42.1661C64.0713 42.5052 62.5105 39.8319 62.4783 36.5425C62.4462 33.2286 62.44 29.914 62.46 26.5986C62.4634 25.8538 62.1772 25.3849 61.3899 25.3723C60.7601 25.3615 60.1307 25.3623 59.5016 25.3746C58.6971 25.3895 58.5235 26.0228 58.5212 26.7411C58.5097 31.0112 58.512 34.5588 58.5281 37.3838ZM81.7364 45.3153C81.8781 45.4249 82.0387 45.4796 82.2179 45.4796C85.456 45.4796 88.7281 45.4796 92.0343 45.4796C92.5825 45.4796 93.0653 45.2808 93.1595 44.7245C93.2239 44.3476 93.2292 43.7242 93.1756 42.8546C93.1342 42.1776 92.7986 41.8616 92.0975 41.8616C89.9311 41.8593 87.7106 41.9478 85.5521 41.8099C85.3905 41.7999 85.3016 41.7145 85.2855 41.5536C85.2319 41.0226 85.2253 40.4924 85.2659 39.9629C85.3119 39.3699 85.1637 38.4113 85.2912 37.4815C85.3165 37.2961 85.4234 37.2034 85.6119 37.2034C87.3489 37.2057 89.0855 37.2053 90.8218 37.2022C92.3182 37.1999 91.9964 35.7495 91.9906 34.7818C91.986 34.0002 91.7022 33.5428 90.8712 33.5508C89.1089 33.5677 87.3596 33.5596 85.6234 33.5267C85.3974 33.5221 85.282 33.4068 85.2774 33.1808C85.2568 31.9824 85.2453 30.7928 85.243 29.6121C85.2422 29.3608 85.3357 29.1723 85.5234 29.0466C85.5422 29.0346 85.564 29.0279 85.5866 29.0271C87.6608 29.0125 89.7353 29.0095 91.8102 29.0179C93.1825 29.0237 92.8802 27.5801 92.8848 26.7181C92.8883 25.9354 92.6768 25.3734 91.8194 25.3688C90.49 25.3612 87.3412 25.3615 82.3731 25.37C81.4525 25.3723 81.3031 26.0182 81.3031 26.825C81.3031 32.7088 81.3042 38.5918 81.3065 44.474C81.3065 44.8134 81.4498 45.0939 81.7364 45.3153ZM60.9727 51.5527C60.9923 51.556 61.0107 51.5644 61.0261 51.577C61.0414 51.5896 61.0533 51.6059 61.0605 51.6244C61.0676 51.6429 61.0699 51.663 61.067 51.6827C61.0641 51.7023 61.0562 51.7209 61.044 51.7366L58.6212 54.8432C58.6096 54.858 58.6018 54.8755 58.5986 54.8942C58.5954 54.9128 58.5968 54.932 58.6028 54.9501C59.4913 57.6866 59.428 60.7679 58.173 63.378C58.0964 63.5374 58.0581 63.7002 58.0581 63.8665C58.0573 66.595 58.0577 69.3227 58.0592 72.0497C58.0592 73.3082 58.712 73.5426 59.882 73.5587C64.6034 73.6242 69.1628 74.0587 72.5315 70.0108C72.9153 69.5495 73.7382 68.4921 75.0002 66.8386C75.0032 66.8342 75.0048 66.829 75.0048 66.8237C75.0048 66.8184 75.0032 66.8132 75.0002 66.8088C74.9902 66.795 74.9757 66.7942 74.9565 66.8065C71.4902 68.9522 67.7227 68.6189 63.7254 68.5385C62.6588 68.5178 61.8508 67.9225 61.8508 66.7708C61.8508 61.5797 61.8508 56.389 61.8508 51.1987C61.8508 49.7275 62.2312 48.9207 63.8414 48.8885C65.7734 48.8506 67.8595 48.7472 69.6524 48.8656C69.6713 48.8667 69.6901 48.8633 69.7073 48.8557C69.7244 48.8481 69.7395 48.8365 69.7513 48.8219L72.3062 45.5658C72.5 45.3191 72.461 45.2735 72.189 45.4291C71.2128 45.9869 70.1968 46.3539 69.141 46.5301C67.7756 46.7592 66.3987 46.7512 65.0103 46.506C60.1567 45.6497 57.688 41.9823 57.6857 37.1471C57.6849 33.6692 57.6845 30.2071 57.6845 26.7606C57.6845 26.5407 57.6163 26.517 57.4799 26.6894C56.3475 28.1161 55.2349 29.5573 54.1423 31.0131C53.976 31.2353 53.8925 31.4315 53.8918 31.6016C53.891 34.6956 53.8914 37.7888 53.8929 40.8812C53.8928 40.9102 53.9038 40.9381 53.9236 40.9594C53.9434 40.9807 53.9706 40.9938 53.9998 40.9961C54.7898 41.0551 55.3334 41.4026 55.6307 42.0386C55.964 42.7535 55.964 44.7062 55.5824 45.4061C55.243 46.029 54.6698 46.3405 53.863 46.3405C50.6058 46.342 47.3475 46.342 44.088 46.3405C42.1779 46.3405 41.6492 45.6555 41.6503 43.7729C41.6549 38.1221 41.653 32.4686 41.6446 26.8124C41.6446 26.5971 41.5768 26.5729 41.4412 26.74C40.2911 28.1521 39.1751 29.5914 38.0932 31.058C37.943 31.261 37.8675 31.4901 37.8668 31.7453C37.853 34.0462 37.7254 36.4644 37.9564 38.7492C38.0702 39.8675 37.853 40.9088 37.8553 41.98C37.8591 44.5315 37.8606 47.0826 37.8599 49.6333C37.8599 50.3137 37.992 50.8504 38.5816 51.163C39.1954 51.4883 40.5941 51.3435 41.3687 51.3331C41.3969 51.3331 41.4244 51.3225 41.4458 51.3033C44.3397 48.6081 48.4405 48.0196 52.1689 49.0276C52.1908 49.0334 52.2138 49.0326 52.2353 49.0255C52.2567 49.0183 52.2756 49.0051 52.2896 48.9874L54.3113 46.4198C54.3955 46.3125 54.4618 46.3225 54.5101 46.4497C55.2993 48.5529 56.7275 50.0382 58.7948 50.9056C59.5142 51.2075 60.2402 51.4232 60.9727 51.5527ZM70.3799 26.7055C69.2498 28.1107 68.1522 29.5064 67.0871 30.8925C66.8917 31.1468 66.794 31.3736 66.794 31.5729C66.7925 34.791 66.7925 38.0091 66.794 41.2272C66.794 41.2565 66.8052 41.2847 66.8252 41.3061C66.8453 41.3274 66.8728 41.3403 66.9021 41.3421C67.3404 41.3666 67.7415 41.344 68.1054 41.2743C70.288 40.8559 70.565 38.2826 70.5707 36.4862C70.5814 33.2459 70.586 30.0094 70.5845 26.7767C70.5845 26.5599 70.5163 26.5361 70.3799 26.7055ZM76.6771 49.685C76.6644 50.5125 77.0494 51.3297 77.9999 51.34C78.5815 51.3462 79.786 51.3454 81.6134 51.3377C81.6319 51.3377 81.65 51.3332 81.6664 51.3246C81.6828 51.316 81.697 51.3035 81.7077 51.2883C83.6856 48.4391 87.2704 48.0783 90.3689 49.0276C90.3912 49.0344 90.4149 49.0343 90.4371 49.0273C90.4592 49.0203 90.4788 49.0068 90.4931 48.9885L92.4607 46.4899C92.5389 46.3903 92.5147 46.3405 92.3883 46.3405C89.233 46.342 86.1 46.342 82.9891 46.3405C81.8984 46.3393 81.0571 46.2554 80.6261 45.2337C80.5219 44.9854 80.4698 44.62 80.4698 44.1372C80.4698 38.3347 80.4698 32.5375 80.4698 26.7457C80.4698 26.5227 80.4013 26.4994 80.2641 26.6756L76.7299 31.2131C76.7157 31.2311 76.7073 31.2527 76.7058 31.2752C76.6652 31.8521 76.6468 32.4709 76.6506 33.1313C76.6797 37.7217 76.682 42.3121 76.6575 46.9025C76.6529 47.7266 76.692 48.7575 76.6771 49.685ZM22.3762 51.4308C22.5279 51.4339 22.5574 51.4956 22.4647 51.6159C21.5621 52.7798 20.653 53.9379 19.7374 55.0903C19.5021 55.386 19.3845 55.6615 19.3845 55.9166C19.3822 61.2763 19.3822 66.636 19.3845 71.9957C19.3857 73.053 19.7753 73.5036 20.874 73.5449C21.8831 73.584 22.9049 73.7587 23.5198 72.945C23.9527 72.3719 25.0537 70.9567 26.8229 68.6994C26.9011 68.5998 26.8766 68.5504 26.7494 68.5511C25.8115 68.558 25.2162 68.5565 24.9633 68.5465C23.8014 68.504 23.1888 67.7707 23.1853 66.6685C23.1646 58.6815 23.1631 53.3594 23.1807 50.7022C23.1861 49.9091 23.5075 49.3651 24.145 49.0701C24.3825 48.9606 24.7273 48.9012 25.1794 48.892C26.7923 48.8575 28.4052 48.8456 30.018 48.8564C30.6548 48.861 31.3133 48.9747 31.9581 49.0437C31.9778 49.0458 31.9976 49.0431 32.0157 49.0356C32.0338 49.0282 32.0496 49.0163 32.0615 49.0012L34.836 45.4647C35.0092 45.244 34.9712 45.1977 34.7222 45.3256C33.497 45.9562 32.1864 46.3164 30.7904 46.406C29.1388 46.5129 27.5275 46.4462 25.6138 46.3865C24.5519 46.3531 23.8152 46.2014 23.3681 45.2417C23.1566 44.7901 23.183 44.2131 23.183 43.6982C23.1784 38.0405 23.1761 32.3912 23.1761 26.7503C23.1761 26.571 23.1213 26.5518 23.0118 26.6928C22.0303 27.9571 21.048 29.219 20.0649 30.4787C19.5925 31.0832 19.3834 31.3188 19.3834 32.1728C19.3834 37.9547 19.3834 43.7365 19.3834 49.5184C19.3845 50.6355 19.7937 51.3044 20.9809 51.3745C21.4476 51.4021 21.9126 51.4209 22.3762 51.4308ZM88.7369 32.7256C89.1553 32.7371 89.5751 32.7344 89.9966 32.7176C90.0132 32.7168 90.0294 32.7126 90.0441 32.705C90.0588 32.6975 90.0716 32.6869 90.0816 32.6739L92.1676 30.0052C92.245 29.9056 92.2209 29.8561 92.0952 29.8569L86.2164 29.873C86.186 29.873 86.1567 29.8851 86.1352 29.9067C86.1136 29.9282 86.1015 29.9575 86.1015 29.9879V32.5762C86.1015 32.6067 86.1136 32.6359 86.1352 32.6575C86.1567 32.679 86.186 32.6911 86.2164 32.6911C87.0585 32.6911 87.8987 32.7026 88.7369 32.7256ZM89.0484 40.9973C89.0542 40.9972 89.0599 40.9959 89.065 40.9933C89.0702 40.9907 89.0747 40.987 89.0783 40.9823L91.3332 38.0987C91.3375 38.0931 91.3401 38.0864 91.3408 38.0794C91.3415 38.0724 91.3402 38.0653 91.3371 38.059C91.334 38.0527 91.3292 38.0474 91.3232 38.0436C91.3173 38.0399 91.3104 38.0378 91.3033 38.0378H86.1394C86.1345 38.0378 86.1295 38.0388 86.1249 38.0407C86.1203 38.0426 86.1161 38.0454 86.1126 38.0489C86.1091 38.0524 86.1063 38.0566 86.1044 38.0612C86.1025 38.0658 86.1015 38.0707 86.1015 38.0757V40.9594C86.1015 40.9643 86.1025 40.9693 86.1044 40.9739C86.1063 40.9785 86.1091 40.9827 86.1126 40.9862C86.1161 40.9897 86.1203 40.9925 86.1249 40.9944C86.1295 40.9963 86.1345 40.9973 86.1394 40.9973H89.0484ZM39.4839 61.1748C41.2377 69.1338 52.5551 70.2947 56.8122 64.0308C58.4442 61.6299 58.7637 58.3394 57.9132 55.596C57.0547 52.8261 55.0055 50.7953 52.2597 49.9425C44.6018 47.5645 37.7162 53.1548 39.4839 61.1748ZM81.6237 54.3731C81.5743 56.5327 82.8455 58.2796 84.7683 59.2301C85.7621 59.7205 86.7451 60.23 87.7175 60.7587C88.4691 61.1679 89.3047 61.8575 89.438 62.731C89.5713 63.6033 89.0978 64.3515 88.2622 64.6515C86.7819 65.1825 84.9913 64.3975 83.7454 63.57C83.1903 63.201 82.7834 63.1654 82.3743 63.7332C81.8743 64.4262 81.1238 65.2779 81.6548 65.8847C81.7253 65.9659 81.9716 66.1514 82.3938 66.441C84.8051 68.096 88.1806 68.6891 90.7804 67.0789C92.4596 66.0376 93.3848 64.3584 93.1595 62.3494C92.8285 59.3945 90.3299 58.198 87.9243 57.1556C86.7957 56.666 85.4407 55.8914 85.3544 54.5972C85.2039 52.325 88.0519 52.3928 89.446 52.9284C90.0149 53.1479 90.6873 53.6617 91.147 52.9675C91.2597 52.7981 91.4688 52.4488 91.7746 51.9193C92.1263 51.309 92.1148 50.7815 91.4286 50.4183C89.3736 49.3345 86.5888 48.9885 84.4453 49.9988C82.7225 50.8091 81.6663 52.4733 81.6237 54.3731ZM24.6162 67.6742C24.6316 67.6826 24.6484 67.6868 24.6668 67.6868C25.2637 67.693 25.8904 67.693 26.5471 67.6868C27.2746 67.6799 27.4861 67.3076 27.4861 66.6053C27.4853 64.9672 27.4861 63.3294 27.4884 61.692C27.4884 61.4223 27.6022 61.2951 27.8297 61.3104C29.202 61.4035 30.8651 61.5069 32.1914 61.107C35.3601 60.1519 37.1323 57.22 36.3715 53.9846C35.5221 50.3712 32.1615 49.6138 28.9745 49.6793C27.6401 49.7069 26.3046 49.7138 24.9691 49.7356C24.299 49.7471 24.0393 50.1218 24.0393 50.7826C24.0377 56.1224 24.0377 61.4621 24.0393 66.8019C24.0393 67.2536 24.2163 67.4719 24.6162 67.6742ZM62.6864 66.2939C62.6783 67.5834 62.9909 67.6937 64.2012 67.7098C68.8456 67.7742 73.4728 68.15 76.5483 64.1538C77.939 62.3471 78.4574 60.1783 78.3217 57.8843C78.0677 53.5686 75.3048 50.5275 71.0764 49.8884C68.5996 49.5138 66.0838 49.6574 63.4093 49.7448C62.8323 49.7643 62.676 50.4734 62.6795 50.9389C62.7201 56.058 62.7224 61.1763 62.6864 66.2939ZM78.739 63.9332C79.283 64.412 79.8672 64.7978 80.4917 65.0905C80.5072 65.0977 80.524 65.1014 80.5411 65.1013C80.5581 65.1013 80.575 65.0975 80.5903 65.0902C80.6057 65.083 80.6192 65.0725 80.63 65.0594C80.6408 65.0463 80.6485 65.0311 80.6526 65.0147C80.7261 64.7212 80.8112 64.5044 80.9077 64.3642C81.9272 62.8953 82.4409 61.7839 84.3695 62.9735C85.3016 63.5493 86.4463 64.0699 87.5738 63.9711C88.4726 63.8929 88.9449 63.0516 88.3496 62.3092C88.0906 61.9851 87.6508 61.6583 87.0302 61.3288C86.2394 60.9081 85.4445 60.4967 84.6453 60.0944C82.3995 58.9623 81.0296 57.4429 80.81 54.8432C80.7656 54.3114 80.7928 53.7862 80.8916 53.2675C80.9399 53.0161 80.8855 52.9916 80.7284 53.1939L78.8573 55.6144C78.8466 55.6283 78.8391 55.6445 78.8355 55.6616C78.8319 55.6788 78.8323 55.6964 78.8366 55.7132C79.4833 58.303 79.2615 60.8016 78.1712 63.2091C78.1628 63.2272 78.1593 63.2472 78.1611 63.2672C78.1629 63.2872 78.17 63.3064 78.1815 63.3229C78.3279 63.532 78.5137 63.7355 78.739 63.9332ZM86.8129 55.5431C87.4397 56.0028 88.0872 56.3576 88.7553 56.6074C88.7783 56.6157 88.8034 56.6165 88.827 56.6097C88.8505 56.6029 88.8713 56.5888 88.8863 56.5695L90.6137 54.3398C90.7034 54.2248 90.6754 54.1632 90.5298 54.1547C90.4126 54.1486 90.2946 54.1367 90.1759 54.1191C90.0364 54.0992 89.8782 54.0448 89.7012 53.9559C88.9288 53.5674 87.1106 53.087 86.4245 53.8295C85.9153 54.38 86.2854 55.1569 86.8129 55.5431ZM34.6935 62.4885C33.897 68.0914 37.1174 73.0875 42.9065 73.7817C46.5683 74.2207 50.0461 73.2335 52.4586 70.336C53.0914 69.5759 53.8519 68.6074 54.74 67.4305C54.9277 67.1815 54.8875 67.1367 54.6193 67.2961C53.6063 67.8999 52.5478 68.3251 51.4437 68.5718C45.7063 69.8545 39.7114 67.0398 38.5736 60.9104C38.2288 59.0508 38.3223 57.2246 38.854 55.4316C38.9467 55.1205 38.8931 55.0933 38.6931 55.35L37.1611 57.32C37.1527 57.3307 37.1461 57.3429 37.1415 57.3567C36.8128 58.4233 36.2604 59.347 35.4842 60.1278C35.0004 60.6151 34.7877 61.8242 34.6935 62.4885ZM28.9296 62.2241C28.709 62.2111 28.5416 62.2053 28.4274 62.2069C28.4124 62.207 28.3977 62.2101 28.3839 62.2161C28.3702 62.222 28.3577 62.2306 28.3473 62.2413C28.3368 62.2521 28.3285 62.2649 28.323 62.2789C28.3174 62.2929 28.3146 62.3079 28.3147 62.323L28.355 66.6973C28.3551 66.7156 28.3595 66.7336 28.368 66.7499C28.3764 66.7661 28.3886 66.7801 28.4036 66.7907C28.4185 66.8013 28.4358 66.8081 28.4539 66.8106C28.4721 66.8132 28.4906 66.8114 28.5078 66.8053C29.6932 66.3808 30.6728 65.6774 31.4467 64.6952C31.7416 64.3205 32.56 63.2704 33.9016 61.5449C34.0587 61.3426 34.0215 61.2958 33.7901 61.4047C32.9749 61.7885 32.2148 62.0241 31.5099 62.1115C30.549 62.2303 29.689 62.2678 28.9296 62.2241ZM90.9103 68.1799C91.0605 67.9815 91.0229 67.9355 90.7976 68.042C88.9771 68.9017 87.0635 69.0867 85.0568 68.5971C83.7718 68.283 82.5332 67.6554 81.341 66.7145C81.0905 66.5161 80.9177 66.3214 80.8227 66.1307C80.7346 65.9529 80.6771 65.7644 80.6503 65.5652C80.6265 65.3882 80.5587 65.3694 80.4468 65.5089C79.3374 66.8911 78.2631 68.2991 77.2241 69.7326C76.6817 70.4808 76.6725 71.3026 77.4333 71.8635C79.8067 73.6139 82.372 74.3196 85.2694 73.5541C86.6693 73.1841 87.6738 72.3278 88.6346 71.1176C89.4001 70.1529 90.1586 69.1737 90.9103 68.1799Z" fill="#340D5E"/>
<path d="M25.1091 45.5222C24.4333 45.4981 24.0391 45.0177 24.0391 44.3683C24.0376 38.4922 24.0372 32.6157 24.038 26.7389C24.038 25.9872 24.2518 25.4401 25.0505 25.3769C26.1148 25.293 27.733 25.2919 29.4237 25.2562C32.4568 25.1907 36.2426 25.8642 36.5415 29.6375C36.7001 31.6434 35.9825 33.2279 34.3888 34.3911C33.9934 34.6795 34.1761 34.9876 34.5382 35.1657C36.1825 35.9733 37.0537 37.3314 37.1517 39.24C37.2828 41.7927 36.2668 43.6443 33.9762 44.743C32.8789 45.2686 31.7231 45.546 30.5087 45.5751C28.9456 45.6127 27.1457 45.595 25.1091 45.5222Z" fill="#F5E750"/>
<path d="M43.1815 45.4647C42.7049 45.2164 42.4812 44.8671 42.5103 44.4165C42.5861 43.2235 42.493 41.3858 42.4988 40.0008C42.5172 35.5529 42.521 31.1051 42.5103 26.6572C42.5095 26.2771 42.5582 26.0009 42.6562 25.8285C43.0367 25.1585 44.686 25.3585 45.3583 25.3665C46.195 25.3757 46.4502 25.886 46.4502 26.6641C46.4486 31.5541 46.4494 36.4444 46.4525 41.3352C46.4525 41.7742 46.6295 41.819 47.026 41.8236C49.294 41.8482 51.5612 41.8608 53.8277 41.8616C55.3126 41.8627 54.9885 43.2258 54.9839 44.2016C54.9804 44.9567 54.7758 45.4762 53.9541 45.4773C50.3383 45.4835 46.7651 45.4835 43.2344 45.4773C43.2152 45.4773 43.1976 45.4731 43.1815 45.4647Z" fill="#F5E750"/>
<path d="M63.7829 45.3452C60.2281 44.1912 58.5501 40.9387 58.5282 37.3838C58.5121 34.5588 58.5099 31.0112 58.5213 26.7411C58.5236 26.0228 58.6972 25.3895 59.5017 25.3745C60.1308 25.3623 60.7602 25.3615 61.39 25.3722C62.1773 25.3849 62.4635 25.8538 62.4601 26.5986C62.4401 29.914 62.4463 33.2286 62.4785 36.5425C62.5106 39.8319 64.0714 42.5052 67.7573 42.1661C71.0018 41.8685 71.4098 38.8113 71.4144 36.2264C71.4244 31.4391 71.4255 28.2118 71.4179 26.5445C71.4133 25.5033 72.0316 25.3734 72.9453 25.3665C74.0131 25.3573 75.3911 25.0999 75.3911 26.5445C75.3896 30.0186 75.3784 33.4926 75.3578 36.9666C75.3497 38.4573 75.2566 39.7744 74.7394 41.1881C73.135 45.5727 67.8021 46.6519 63.7829 45.3452Z" fill="#F5E750"/>
<path d="M81.7365 45.3153C81.45 45.0939 81.3067 44.8134 81.3067 44.474C81.3044 38.5918 81.3032 32.7088 81.3032 26.825C81.3032 26.0182 81.4526 25.3723 82.3732 25.37C87.3414 25.3615 90.4901 25.3612 91.8195 25.3688C92.6769 25.3734 92.8884 25.9354 92.8849 26.7181C92.8803 27.5801 93.1826 29.0237 91.8103 29.0179C89.7354 29.0095 87.6609 29.0125 85.5867 29.0271C85.5641 29.0279 85.5423 29.0346 85.5235 29.0466C85.3358 29.1723 85.2423 29.3608 85.2431 29.6121C85.2454 30.7928 85.2569 31.9824 85.2776 33.1808C85.2822 33.4068 85.3975 33.5221 85.6235 33.5267C87.3598 33.5596 89.109 33.5677 90.8713 33.5508C91.7023 33.5428 91.9862 34.0002 91.9908 34.7818C91.9965 35.7495 92.3183 37.1999 90.8219 37.2022C89.0857 37.2053 87.349 37.2057 85.612 37.2034C85.4235 37.2034 85.3167 37.2961 85.2914 37.4815C85.1638 38.4113 85.3121 39.3699 85.2661 39.9629C85.2255 40.4924 85.232 41.0226 85.2856 41.5536C85.3017 41.7145 85.3906 41.7999 85.5523 41.8099C87.7107 41.9478 89.9312 41.8593 92.0977 41.8616C92.7987 41.8616 93.1343 42.1776 93.1757 42.8546C93.2294 43.7242 93.224 44.3476 93.1596 44.7245C93.0654 45.2808 92.5827 45.4796 92.0344 45.4796C88.7282 45.4796 85.4561 45.4796 82.2181 45.4796C82.0388 45.4796 81.8783 45.4249 81.7365 45.3153Z" fill="#F5E750"/>
<path d="M60.9728 51.5527C60.2403 51.4232 59.5143 51.2075 58.7948 50.9056C56.7276 50.0382 55.2994 48.5529 54.5102 46.4497C54.4619 46.3225 54.3956 46.3125 54.3113 46.4198L52.2897 48.9874C52.2757 49.0051 52.2568 49.0183 52.2353 49.0255C52.2139 49.0326 52.1909 49.0334 52.169 49.0276C48.4406 48.0196 44.3398 48.6081 41.4458 51.3033C41.4244 51.3225 41.397 51.3331 41.3688 51.3331C40.5942 51.3435 39.1955 51.4883 38.5817 51.163C37.9921 50.8504 37.8599 50.3137 37.8599 49.6333C37.8607 47.0826 37.8592 44.5315 37.8553 41.98C37.853 40.9088 38.0703 39.8675 37.9565 38.7492C37.7255 36.4644 37.8531 34.0462 37.8668 31.7453C37.8676 31.4901 37.9431 31.261 38.0933 31.058C39.1752 29.5914 40.2911 28.1521 41.4412 26.74C41.5769 26.5729 41.6447 26.5971 41.6447 26.8124C41.6531 32.4686 41.655 38.1221 41.6504 43.7729C41.6493 45.6555 42.1779 46.3405 44.0881 46.3405C47.3476 46.342 50.6059 46.342 53.8631 46.3405C54.6699 46.3405 55.2431 46.029 55.5825 45.4061C55.9641 44.7062 55.9641 42.7535 55.6308 42.0386C55.3335 41.4026 54.7898 41.0551 53.9999 40.9961C53.9707 40.9938 53.9435 40.9807 53.9237 40.9594C53.9039 40.9381 53.8929 40.9102 53.893 40.8812C53.8915 37.7888 53.8911 34.6956 53.8918 31.6016C53.8926 31.4315 53.9761 31.2353 54.1424 31.0131C55.235 29.5573 56.3475 28.1161 57.48 26.6894C57.6164 26.517 57.6846 26.5407 57.6846 26.7606C57.6846 30.2071 57.685 33.6692 57.6857 37.1471C57.688 41.9823 60.1568 45.6497 65.0104 46.506C66.3988 46.7512 67.7756 46.7592 69.141 46.5301C70.1969 46.3539 71.2129 45.9869 72.189 45.4291C72.461 45.2735 72.5001 45.3191 72.3063 45.5658L69.7513 48.8219C69.7396 48.8365 69.7245 48.8481 69.7073 48.8557C69.6901 48.8633 69.6713 48.8667 69.6525 48.8656C67.8595 48.7472 65.7735 48.8506 63.8415 48.8885C62.2313 48.9207 61.8509 49.7275 61.8509 51.1987C61.8509 56.389 61.8509 61.5797 61.8509 66.7708C61.8509 67.9225 62.6589 68.5178 63.7254 68.5385C67.7228 68.6189 71.4903 68.9522 74.9566 66.8065C74.9758 66.7942 74.9903 66.795 75.0003 66.8088C75.0033 66.8132 75.0049 66.8184 75.0049 66.8237C75.0049 66.829 75.0033 66.8342 75.0003 66.8386C73.7383 68.4921 72.9154 69.5495 72.5315 70.0108C69.1629 74.0587 64.6035 73.6242 59.8821 73.5587C58.7121 73.5426 58.0593 73.3082 58.0593 72.0497C58.0577 69.3227 58.0574 66.595 58.0581 63.8665C58.0581 63.7002 58.0964 63.5374 58.1731 63.378C59.4281 60.7679 59.4913 57.6866 58.6029 54.9501C58.5969 54.932 58.5954 54.9128 58.5986 54.8942C58.6019 54.8755 58.6096 54.858 58.6213 54.8432L61.0441 51.7366C61.0563 51.7209 61.0642 51.7023 61.0671 51.6827C61.07 51.663 61.0677 51.6429 61.0605 51.6244C61.0534 51.6059 61.0415 51.5896 61.0261 51.577C61.0108 51.5644 60.9924 51.556 60.9728 51.5527Z" fill="#FB8E55"/>
<path d="M70.38 26.7056C70.5164 26.5362 70.5846 26.56 70.5846 26.7768C70.5861 30.0095 70.5815 33.246 70.5708 36.4863C70.565 38.2827 70.2881 40.856 68.1055 41.2744C67.7415 41.3441 67.3404 41.3667 66.9022 41.3422C66.8729 41.3404 66.8454 41.3275 66.8253 41.3062C66.8052 41.2848 66.7941 41.2566 66.7941 41.2272C66.7926 38.0091 66.7926 34.791 66.7941 31.5729C66.7941 31.3737 66.8918 31.1469 67.0872 30.8925C68.1522 29.5065 69.2498 28.1108 70.38 26.7056Z" fill="#FB8E55"/>
<path d="M78.0002 51.34C77.0497 51.3297 76.6647 50.5125 76.6773 49.685C76.6923 48.7575 76.6532 47.7266 76.6578 46.9025C76.6823 42.3121 76.68 37.7217 76.6509 33.1313C76.6471 32.4709 76.6654 31.8521 76.7061 31.2752C76.7076 31.2527 76.716 31.2311 76.7302 31.2131L80.2644 26.6756C80.4015 26.4994 80.4701 26.5227 80.4701 26.7457C80.4701 32.5375 80.4701 38.3347 80.4701 44.1372C80.4701 44.62 80.5222 44.9854 80.6264 45.2337C81.0574 46.2554 81.8987 46.3393 82.9894 46.3405C86.1002 46.342 89.2333 46.342 92.3885 46.3405C92.515 46.3405 92.5391 46.3903 92.461 46.4899L90.4933 48.9885C90.479 49.0068 90.4595 49.0203 90.4373 49.0273C90.4152 49.0343 90.3914 49.0344 90.3692 49.0276C87.2706 48.0783 83.6859 48.4392 81.7079 51.2883C81.6972 51.3035 81.6831 51.316 81.6667 51.3246C81.6503 51.3332 81.6321 51.3377 81.6137 51.3377C79.7862 51.3454 78.5817 51.3462 78.0002 51.34Z" fill="#FB8E55"/>
<path d="M22.3762 51.4308C21.9127 51.4209 21.4476 51.4021 20.9809 51.3745C19.7937 51.3044 19.3845 50.6355 19.3834 49.5184C19.3834 43.7365 19.3834 37.9546 19.3834 32.1728C19.3834 31.3188 19.5926 31.0832 20.0649 30.4787C21.048 29.219 22.0303 27.9571 23.0118 26.6928C23.1214 26.5518 23.1761 26.571 23.1761 26.7503C23.1761 32.3912 23.1784 38.0405 23.183 43.6982C23.183 44.2131 23.1566 44.79 23.3681 45.2417C23.8152 46.2014 24.5519 46.3531 25.6139 46.3865C27.5275 46.4462 29.1388 46.5129 30.7904 46.406C32.1864 46.3163 33.4971 45.9562 34.7222 45.3256C34.9713 45.1977 35.0092 45.244 34.836 45.4647L32.0616 49.0012C32.0496 49.0163 32.0338 49.0282 32.0157 49.0356C31.9976 49.043 31.9778 49.0458 31.9581 49.0437C31.3133 48.9747 30.6548 48.8609 30.0181 48.8563C28.4052 48.8456 26.7923 48.8575 25.1794 48.892C24.7273 48.9012 24.3826 48.9605 24.145 49.0701C23.5075 49.3651 23.1861 49.9091 23.1807 50.7022C23.1631 53.3594 23.1647 58.6815 23.1853 66.6685C23.1888 67.7707 23.8014 68.504 24.9633 68.5465C25.2162 68.5565 25.8115 68.558 26.7494 68.5511C26.8766 68.5504 26.9011 68.5998 26.8229 68.6994C25.0538 70.9567 23.9527 72.3718 23.5198 72.945C22.9049 73.7587 21.8832 73.584 20.8741 73.5449C19.7753 73.5036 19.3857 73.053 19.3845 71.9956C19.3822 66.636 19.3822 61.2763 19.3845 55.9166C19.3845 55.6615 19.5021 55.386 19.7374 55.0903C20.653 53.9379 21.5621 52.7797 22.4647 51.6159C22.5574 51.4956 22.5279 51.4339 22.3762 51.4308Z" fill="#FB8E55"/>
<path d="M88.737 32.7257C87.8987 32.7027 87.0586 32.6912 86.2165 32.6912C86.186 32.6912 86.1568 32.6791 86.1352 32.6575C86.1137 32.636 86.1016 32.6067 86.1016 32.5762V29.988C86.1016 29.9575 86.1137 29.9282 86.1352 29.9067C86.1568 29.8851 86.186 29.873 86.2165 29.873L92.0953 29.8569C92.2209 29.8562 92.2451 29.9056 92.1677 30.0052L90.0817 32.6739C90.0716 32.6869 90.0588 32.6975 90.0441 32.705C90.0294 32.7126 90.0132 32.7169 89.9966 32.7176C89.5752 32.7345 89.1553 32.7371 88.737 32.7257Z" fill="#FB8E55"/>
<path d="M89.0484 40.9973H86.1395C86.1345 40.9973 86.1296 40.9963 86.125 40.9944C86.1204 40.9925 86.1162 40.9897 86.1127 40.9862C86.1092 40.9827 86.1064 40.9785 86.1045 40.9739C86.1025 40.9693 86.1016 40.9643 86.1016 40.9594V38.0757C86.1016 38.0707 86.1025 38.0658 86.1045 38.0612C86.1064 38.0566 86.1092 38.0524 86.1127 38.0489C86.1162 38.0454 86.1204 38.0426 86.125 38.0407C86.1296 38.0388 86.1345 38.0378 86.1395 38.0378H91.3034C91.3104 38.0378 91.3173 38.0398 91.3233 38.0436C91.3293 38.0473 91.3341 38.0527 91.3372 38.059C91.3403 38.0653 91.3415 38.0724 91.3409 38.0794C91.3402 38.0864 91.3375 38.0931 91.3333 38.0987L89.0783 40.9823C89.0748 40.9869 89.0703 40.9907 89.0651 40.9933C89.0599 40.9959 89.0542 40.9972 89.0484 40.9973Z" fill="#FB8E55"/>
<path d="M56.8123 64.0308C52.5552 70.2946 41.2378 69.1338 39.484 61.1748C37.7163 53.1548 44.6019 47.5645 52.2598 49.9424C55.0056 50.7952 57.0548 52.8261 57.9133 55.5959C58.7638 58.3394 58.4443 61.6299 56.8123 64.0308Z" fill="#F5E750"/>
<path d="M84.7682 59.2301C82.8454 58.2796 81.5743 56.5327 81.6237 54.3731C81.6662 52.4733 82.7224 50.809 84.4453 49.9988C86.5888 48.9885 89.3736 49.3345 91.4285 50.4183C92.1147 50.7814 92.1262 51.309 91.7745 51.9193C91.4688 52.4487 91.2596 52.7981 91.147 52.9675C90.6872 53.6617 90.0149 53.1479 89.446 52.9284C88.0518 52.3928 85.2038 52.325 85.3544 54.5972C85.4406 55.8913 86.7956 56.666 87.9243 57.1556C90.3298 58.198 92.8284 59.3945 93.1594 62.3494C93.3847 64.3584 92.4595 66.0375 90.7803 67.0788C88.1806 68.689 84.805 68.096 82.3937 66.441C81.9715 66.1513 81.7252 65.9659 81.6547 65.8847C81.1237 65.2778 81.8742 64.4262 82.3742 63.7332C82.7834 63.1654 83.1902 63.201 83.7453 63.57C84.9912 64.3975 86.7818 65.1825 88.2622 64.6515C89.0977 64.3515 89.5712 63.6033 89.4379 62.7309C89.3046 61.8575 88.469 61.1679 87.7174 60.7587C86.7451 60.23 85.762 59.7205 84.7682 59.2301Z" fill="#F5E750"/>
<path d="M24.6167 67.6742C24.2167 67.4719 24.0397 67.2536 24.0397 66.8019C24.0382 61.4621 24.0382 56.1224 24.0397 50.7826C24.0397 50.1218 24.2995 49.7471 24.9695 49.7356C26.305 49.7138 27.6405 49.7069 28.9749 49.6793C32.162 49.6138 35.5226 50.3712 36.3719 53.9846C37.1328 57.22 35.3605 60.1519 32.1919 61.107C30.8655 61.5069 29.2025 61.4035 27.8302 61.3104C27.6026 61.2951 27.4888 61.4223 27.4888 61.692C27.4865 63.3294 27.4858 64.9672 27.4865 66.6053C27.4865 67.3076 27.2751 67.6799 26.5475 67.6868C25.8909 67.693 25.2641 67.693 24.6673 67.6868C24.6489 67.6868 24.632 67.6826 24.6167 67.6742Z" fill="#F5E750"/>
<path d="M64.201 67.7098C62.9907 67.6937 62.6781 67.5834 62.6862 66.2938C62.7222 61.1763 62.7199 56.058 62.6793 50.9389C62.6758 50.4734 62.8321 49.7643 63.4091 49.7447C66.0835 49.6574 68.5994 49.5137 71.0762 49.8884C75.3046 50.5274 78.0675 53.5685 78.3215 57.8842C78.4571 60.1783 77.9388 62.3471 76.5481 64.1538C73.4725 68.15 68.8454 67.7741 64.201 67.7098Z" fill="#F5E750"/>
<path d="M78.7385 63.9332C78.5132 63.7355 78.3274 63.5321 78.181 63.3229C78.1695 63.3064 78.1624 63.2872 78.1606 63.2672C78.1588 63.2472 78.1623 63.2272 78.1707 63.2091C79.261 60.8016 79.4828 58.303 78.8362 55.7132C78.8318 55.6964 78.8314 55.6788 78.835 55.6616C78.8386 55.6445 78.8461 55.6283 78.8568 55.6144L80.7279 53.1939C80.885 52.9916 80.9394 53.0161 80.8911 53.2675C80.7923 53.7862 80.7651 54.3114 80.8095 54.8432C81.0291 57.4429 82.3991 58.9623 84.6448 60.0944C85.444 60.4967 86.2389 60.9082 87.0297 61.3288C87.6503 61.6583 88.0901 61.9851 88.3491 62.3092C88.9444 63.0516 88.4721 63.8929 87.5733 63.9711C86.4458 64.0699 85.3011 63.5493 84.369 62.9735C82.4404 61.7839 81.9267 62.8953 80.9072 64.3642C80.8107 64.5044 80.7256 64.7212 80.6521 65.0147C80.648 65.0311 80.6403 65.0464 80.6295 65.0594C80.6187 65.0725 80.6052 65.083 80.5898 65.0903C80.5745 65.0975 80.5577 65.1013 80.5406 65.1013C80.5236 65.1014 80.5067 65.0977 80.4912 65.0905C79.8667 64.7978 79.2825 64.4121 78.7385 63.9332Z" fill="#FB8E55"/>
<path d="M86.8129 55.5431C86.2854 55.157 85.9153 54.38 86.4245 53.8295C87.1106 53.087 88.9288 53.5674 89.7012 53.9559C89.8782 54.0448 90.0364 54.0992 90.1758 54.1191C90.2946 54.1367 90.4126 54.1486 90.5298 54.1547C90.6754 54.1632 90.7034 54.2249 90.6137 54.3398L88.8863 56.5695C88.8713 56.5888 88.8505 56.6029 88.8269 56.6097C88.8034 56.6165 88.7783 56.6157 88.7553 56.6074C88.0871 56.3576 87.4397 56.0029 86.8129 55.5431Z" fill="#FB8E55"/>
<path d="M42.9067 73.7817C37.1175 73.0875 33.8971 68.0914 34.6936 62.4885C34.7879 61.8242 35.0005 60.6151 35.4844 60.1278C36.2605 59.347 36.813 58.4233 37.1417 57.3567C37.1463 57.343 37.1528 57.3307 37.1612 57.32L38.6933 55.35C38.8932 55.0933 38.9469 55.1206 38.8542 55.4316C38.3224 57.2246 38.2289 59.0508 38.5737 60.9104C39.7116 67.0398 45.7064 69.8545 51.4438 68.5718C52.548 68.3251 53.6065 67.8999 54.6194 67.2961C54.8876 67.1367 54.9278 67.1815 54.7401 67.4305C53.8521 68.6075 53.0916 69.576 52.4587 70.336C50.0463 73.2335 46.5684 74.2207 42.9067 73.7817Z" fill="#FB8E55"/>
<path d="M28.9298 62.2241C29.6892 62.2678 30.5492 62.2302 31.5101 62.1115C32.215 62.0241 32.9751 61.7885 33.7903 61.4046C34.0217 61.2958 34.0589 61.3426 33.9018 61.5448C32.5602 63.2704 31.7418 64.3204 31.4468 64.6951C30.673 65.6774 29.6934 66.3808 28.508 66.8053C28.4907 66.8113 28.4723 66.8131 28.4541 66.8106C28.436 66.8081 28.4187 66.8012 28.4038 66.7906C28.3888 66.7801 28.3766 66.7661 28.3681 66.7498C28.3597 66.7336 28.3552 66.7156 28.3552 66.6972L28.3149 62.3229C28.3148 62.3078 28.3176 62.2928 28.3232 62.2788C28.3287 62.2648 28.337 62.2521 28.3475 62.2413C28.3579 62.2305 28.3704 62.2219 28.3841 62.216C28.3979 62.2101 28.4126 62.207 28.4276 62.2068C28.5417 62.2053 28.7092 62.2111 28.9298 62.2241Z" fill="#FB8E55"/>
<path d="M90.9101 68.1798C90.1584 69.1736 89.3999 70.1528 88.6344 71.1175C87.6736 72.3277 86.6691 73.184 85.2692 73.5541C82.3718 74.3195 79.8065 73.6138 77.4331 71.8634C76.6723 71.3025 76.6815 70.4808 77.224 69.7326C78.263 68.299 79.3372 66.8911 80.4467 65.5088C80.5585 65.3694 80.6263 65.3881 80.6501 65.5651C80.6769 65.7643 80.7344 65.9528 80.8225 66.1306C80.9175 66.3214 81.0903 66.516 81.3408 66.7144C82.5331 67.6554 83.7716 68.2829 85.0566 68.597C87.0633 69.0866 88.9769 68.9016 90.7975 68.0419C91.0227 67.9354 91.0603 67.9814 90.9101 68.1798Z" fill="#FB8E55"/>
</svg>
