<svg width="944" height="115" viewBox="0 0 944 115" fill="none" xmlns="http://www.w3.org/2000/svg">
<path d="M0 113.614V1.38554H64.1082C90.4877 1.38554 101.53 12.3159 101.53 30.174C101.53 42.6439 94.6286 52.3427 82.9726 54.6519V55.8835C97.0825 58.1928 104.904 68.0455 104.904 82.2088C104.904 102.992 89.4141 113.614 62.7279 113.614H0ZM26.6862 47.2624H57.8201C70.243 47.2624 74.9974 41.8742 74.9974 33.5609C74.9974 24.17 67.7891 20.0134 57.0532 20.0134H26.6862V47.2624ZM26.6862 94.9866H58.1268C72.5435 94.9866 78.0648 88.8287 78.0648 79.7457C78.0648 70.0469 71.6233 65.1205 58.8937 65.1205H26.6862V94.9866Z" fill="#F7F2E4"/>
<path d="M116.674 113.614V1.38554H143.36V91.5997H199.34V113.614H116.674Z" fill="#F7F2E4"/>
<path d="M257.793 115C224.972 115 203.654 100.683 203.654 65.5823V1.38554H229.88V65.5823C229.88 82.5167 236.935 92.9853 257.793 92.9853C275.89 92.9853 285.706 85.4418 285.706 65.5823V1.38554H312.085V65.5823C312.085 96.834 294.755 115 257.793 115Z" fill="#F7F2E4"/>
<path d="M328.455 113.614V1.38554H423.084V22.6305H355.141V46.9545H415.569V66.8139H355.141V92.3695H423.39V113.614H328.455Z" fill="#F7F2E4"/>
<path d="M469.543 113.614V1.38554H526.902C557.423 1.38554 570.766 15.7028 570.766 38.0254C570.766 63.2731 553.435 74.6653 526.902 74.6653L496.229 74.5114V113.614H469.543ZM524.142 22.3226H496.229V55.5756L524.142 55.7296C537.792 55.7296 543.926 49.4177 543.926 38.9491C543.926 27.095 536.105 22.3226 524.142 22.3226Z" fill="#F7F2E4"/>
<path d="M641.655 115C601.779 115 578.313 92.2155 578.313 57.423C578.313 22.6305 601.932 0 641.655 0C681.071 0 704.536 22.6305 704.536 57.423C704.536 92.2155 680.917 115 641.655 115ZM641.655 93.755C663.433 93.755 677.543 81.1312 677.543 57.423C677.543 33.7149 663.28 21.245 641.655 21.245C619.416 21.245 605.46 33.7149 605.46 57.423C605.46 81.1312 619.57 93.755 641.655 93.755Z" fill="#F7F2E4"/>
<path d="M717.719 113.614V1.38554H771.551C810.353 1.38554 830.291 23.7082 830.291 57.577C830.291 93.909 807.439 113.614 771.551 113.614H717.719ZM744.405 92.6774H766.336C792.102 92.6774 803.298 79.4378 803.298 57.1151C803.298 32.1754 788.575 22.1687 766.336 22.1687H744.405V92.6774Z" fill="#F7F2E4"/>
<path d="M891.548 115C854.433 115 837.562 99.759 837.255 77.8983H865.168C865.475 89.5984 874.831 96.5261 892.468 96.5261C908.265 96.5261 916.394 91.2918 916.394 82.5167C916.394 71.2784 908.112 70.0469 888.327 67.5837C856.733 63.8889 840.169 56.6533 840.169 34.4846C840.169 12.4699 859.34 0 890.628 0C919.768 0 938.172 12.3159 939.859 33.8688H912.866C911.639 23.0924 902.897 18.3199 889.554 18.3199C875.597 18.3199 867.622 23.4003 867.622 31.5596C867.622 41.2584 874.524 42.7979 895.382 45.261C927.896 49.1098 944 55.5756 944 80.3614C944 102.068 925.442 115 891.548 115Z" fill="#F7F2E4"/>
</svg>
