<svg width="20" height="20" viewBox="0 0 20 20" fill="none" xmlns="http://www.w3.org/2000/svg">
<path d="M11.0276 0.000366211C12.153 0.00222621 12.7233 0.00817622 13.2161 0.0228462L13.4102 0.0291963C13.6344 0.0371663 13.8556 0.0471664 14.1223 0.0596664C15.1864 0.108826 15.9123 0.277166 16.5498 0.524666C17.2089 0.778826 17.7656 1.12217 18.3214 1.678C18.8764 2.23383 19.2198 2.79217 19.4748 3.44967C19.7214 4.08633 19.8898 4.813 19.9398 5.87717C19.9517 6.14383 19.9613 6.36503 19.9692 6.58928L19.9755 6.78336C19.9901 7.27611 19.9968 7.84649 19.9989 8.97189L19.9997 9.71759C19.9998 9.80869 19.9998 9.90269 19.9998 9.99969L19.9997 10.2818L19.9991 11.0275C19.9972 12.1529 19.9913 12.7232 19.9766 13.216L19.9702 13.4101C19.9623 13.6343 19.9523 13.8555 19.9398 14.1222C19.8906 15.1863 19.7214 15.9122 19.4748 16.5497C19.2206 17.2088 18.8764 17.7655 18.3214 18.3213C17.7656 18.8763 17.2064 19.2197 16.5498 19.4747C15.9123 19.7213 15.1864 19.8897 14.1223 19.9397C13.8556 19.9516 13.6344 19.9612 13.4102 19.9691L13.2161 19.9754C12.7233 19.99 12.153 19.9967 11.0276 19.9988L10.2819 19.9996C10.1908 19.9997 10.0968 19.9997 9.99981 19.9997L9.71771 19.9996L8.97201 19.999C7.84661 19.9971 7.27623 19.9912 6.78348 19.9765L6.5894 19.9701C6.36515 19.9622 6.14395 19.9522 5.87729 19.9397C4.81312 19.8905 4.08812 19.7213 3.44979 19.4747C2.79145 19.2205 2.23395 18.8763 1.67812 18.3213C1.12229 17.7655 0.779788 17.2063 0.524788 16.5497C0.277288 15.9122 0.109788 15.1863 0.0597885 14.1222C0.0479085 13.8555 0.0382183 13.6343 0.0303683 13.4101L0.0240784 13.216C0.00944837 12.7232 0.00277846 12.1529 0.000618458 11.0275L0.000488281 8.97189C0.00234828 7.84649 0.00829829 7.27611 0.0229683 6.78336L0.0293183 6.58928C0.0372883 6.36503 0.0472885 6.14383 0.0597885 5.87717C0.108948 4.81217 0.277288 4.08717 0.524788 3.44967C0.778948 2.79133 1.12229 2.23383 1.67812 1.678C2.23395 1.12217 2.79229 0.779666 3.44979 0.524666C4.08729 0.277166 4.81229 0.109666 5.87729 0.0596664C6.14395 0.0477864 6.36515 0.0380963 6.5894 0.0302463L6.78348 0.0239563C7.27623 0.0093263 7.84661 0.00265639 8.97201 0.000496387L11.0276 0.000366211ZM9.99981 4.99967C7.23689 4.99967 4.99979 7.2392 4.99979 9.99969C4.99979 12.7626 7.23932 14.9997 9.99981 14.9997C12.7627 14.9997 14.9998 12.7601 14.9998 9.99969C14.9998 7.23677 12.7602 4.99967 9.99981 4.99967ZM9.99981 6.99967C11.6567 6.99967 12.9998 8.34229 12.9998 9.99969C12.9998 11.6566 11.6571 12.9997 9.99981 12.9997C8.34291 12.9997 6.99979 11.657 6.99979 9.99969C6.99979 8.34279 8.34241 6.99967 9.99981 6.99967ZM15.2498 3.49967C14.5605 3.49967 13.9998 4.05957 13.9998 4.74882C13.9998 5.43806 14.5597 5.99883 15.2498 5.99883C15.939 5.99883 16.4998 5.43893 16.4998 4.74882C16.4998 4.05957 15.9381 3.4988 15.2498 3.49967Z" fill="#FC6CFF"/>
</svg>
