<svg width="50" height="56" viewBox="0 0 50 56" fill="none" xmlns="http://www.w3.org/2000/svg">
<path d="M3.22581 26.3529C3.22581 25.9161 3.05588 25.4972 2.7534 25.1883C2.45092 24.8794 2.04067 24.7059 1.6129 24.7059C1.18513 24.7059 0.774887 24.8794 0.472409 25.1883C0.169931 25.4972 1.76074e-07 25.9161 1.76074e-07 26.3529C-0.000623114 30.8733 1.65358 35.2307 4.63781 38.5695C7.62203 41.9082 11.7207 43.9872 16.129 44.3981V51.0588C16.129 51.4957 16.299 51.9146 16.6014 52.2235C16.9039 52.5324 17.3142 52.7059 17.7419 52.7059C18.1697 52.7059 18.58 52.5324 18.8824 52.2235C19.1849 51.9146 19.3548 51.4957 19.3548 51.0588V48.7332C18.2889 46.3629 17.7386 43.7848 17.7419 41.1765C13.892 41.1765 10.1998 39.6147 7.47748 36.8348C4.75518 34.0548 3.22581 30.2844 3.22581 26.3529ZM27.4194 9.88235V25.0353C25.2493 26.1691 23.3306 27.7463 21.7824 29.669C20.2341 31.5917 19.0895 33.8189 18.4194 36.2122C17.0946 36.3072 15.7649 36.1226 14.5129 35.6701C13.261 35.2177 12.1137 34.5069 11.1424 33.582C10.1711 32.6572 9.39656 31.5381 8.86705 30.2944C8.33754 29.0508 8.06436 27.7091 8.06452 26.3529V9.88235C8.06452 7.26139 9.0841 4.74778 10.899 2.89447C12.7138 1.04117 15.1753 0 17.7419 0C20.3085 0 22.77 1.04117 24.5849 2.89447C26.3998 4.74778 27.4194 7.26139 27.4194 9.88235ZM50 41.1765C50 37.245 48.4706 33.4746 45.7483 30.6947C43.026 27.9147 39.3338 26.3529 35.4839 26.3529C31.634 26.3529 27.9417 27.9147 25.2194 30.6947C22.4971 33.4746 20.9677 37.245 20.9677 41.1765C20.9677 45.1079 22.4971 48.8783 25.2194 51.6583C27.9417 54.4382 31.634 56 35.4839 56C39.3338 56 43.026 54.4382 45.7483 51.6583C48.4706 48.8783 50 45.1079 50 41.1765ZM32.0774 34.5882C32.4013 34.5988 32.7146 34.7089 32.9764 34.9039C33.2382 35.099 33.4364 35.3701 33.5452 35.6819L35.5742 41.4729L37.4452 36.7195C37.5597 36.4293 37.7529 36.1784 38.0021 35.9963C38.2512 35.8141 38.546 35.7082 38.852 35.6909C39.1579 35.6736 39.4624 35.7457 39.7297 35.8987C39.997 36.0517 40.2161 36.2793 40.3613 36.5548L42.2097 40.0795H43.5484C43.9762 40.0795 44.3864 40.2531 44.6889 40.5619C44.9914 40.8708 45.1613 41.2898 45.1613 41.7266C45.1613 42.1634 44.9914 42.5824 44.6889 42.8912C44.3864 43.2001 43.9762 43.3736 43.5484 43.3736H41.2452C40.9532 43.3738 40.6666 43.2929 40.4161 43.1398C40.1655 42.9866 39.9604 42.7669 39.8226 42.504L39.1484 41.2193L36.9806 46.7304C36.8588 47.0407 36.6473 47.3058 36.3744 47.4905C36.1014 47.6752 35.7799 47.7706 35.4525 47.7642C35.1252 47.7578 34.8075 47.6497 34.5417 47.4545C34.2759 47.2592 34.0746 46.986 33.9645 46.6711L31.8903 40.7416L31.2065 42.3755C31.082 42.672 30.875 42.9246 30.6112 43.1021C30.3475 43.2795 30.0385 43.3739 29.7226 43.3736H27.4194C26.9916 43.3736 26.5813 43.2001 26.2789 42.8912C25.9764 42.5824 25.8065 42.1634 25.8065 41.7266C25.8065 41.2898 25.9764 40.8708 26.2789 40.5619C26.5813 40.2531 26.9916 40.0795 27.4194 40.0795H28.6613L30.5452 35.5864C30.6727 35.282 30.8872 35.024 31.1605 34.8459C31.4338 34.6679 31.7534 34.5781 32.0774 34.5882Z" fill="#FB8E55"/>
</svg>
