<svg width="20" height="16" viewBox="0 0 20 16" fill="none" xmlns="http://www.w3.org/2000/svg">
<path d="M10.2444 0.000427246C10.7785 0.00336725 12.1148 0.0162873 13.5346 0.0731573L14.038 0.0951071C15.4675 0.162787 16.8958 0.278407 17.6042 0.475927C18.5491 0.741377 19.2918 1.51593 19.5428 2.49775C19.9425 4.05684 19.9925 7.09983 19.9987 7.83623L19.9996 7.98883V7.99953C19.9996 7.99953 19.9996 8.00323 19.9996 8.01033L19.9987 8.16293C19.9925 8.89933 19.9425 11.9423 19.5428 13.5014C19.2883 14.4868 18.5456 15.2614 17.6042 15.5232C16.8958 15.7207 15.4675 15.8363 14.038 15.904L13.5346 15.9259C12.1148 15.9828 10.7785 15.9957 10.2444 15.9987L10.01 15.9995H9.99959C9.99959 15.9995 9.99609 15.9995 9.98919 15.9995L9.75499 15.9987C8.62459 15.9925 3.89821 15.9414 2.395 15.5232C1.45009 15.2577 0.707408 14.4832 0.456358 13.5014C0.0566882 11.9423 0.00672828 8.89933 0.000488281 8.16293V7.83623C0.00672828 7.09983 0.0566882 4.05684 0.456358 2.49775C0.710888 1.51229 1.45357 0.737747 2.395 0.475927C3.89821 0.0576574 8.62459 0.00664725 9.75499 0.000427246H10.2444ZM7.9996 4.49957V11.4995L13.9996 7.99953L7.9996 4.49957Z" fill="#FF4747"/>
</svg>
